<svg xmlns="http://www.w3.org/2000/svg" viewBox="0 0 1320 2868">
  <defs>
    <linearGradient id="background" x1="180" y1="120" x2="1120" y2="2740" gradientUnits="userSpaceOnUse">
      <stop stop-color="#1D2E73"/>
      <stop offset="0.52" stop-color="#16235A"/>
      <stop offset="1" stop-color="#0E1733"/>
    </linearGradient>
    <radialGradient id="glow" cx="0" cy="0" r="1" gradientTransform="translate(660 1260) rotate(90) scale(690)" gradientUnits="userSpaceOnUse">
      <stop stop-color="#18B5C9" stop-opacity="0.18"/>
      <stop offset="1" stop-color="#18B5C9" stop-opacity="0"/>
    </radialGradient>
    <filter id="shadow" x="315" y="835" width="690" height="690" filterUnits="userSpaceOnUse">
      <feDropShadow dx="0" dy="34" stdDeviation="42" flood-color="#050A1D" flood-opacity="0.42"/>
    </filter>
  </defs>
  <rect width="1320" height="2868" fill="url(#background)"/>
  <circle cx="660" cy="1260" r="690" fill="url(#glow)"/>
  <g filter="url(#shadow)">
    <rect x="430" y="950" width="460" height="460" rx="116" fill="#FFFFFF"/>
  </g>
  <g transform="translate(510 1030) scale(3)">
    <g transform="rotate(0 50 50)"><polygon points="76.87,35.86 86.77,40.10 66.14,41.39" fill="#18B5C9"/><polygon points="64.14,23.13 59.90,13.23 58.61,33.86" fill="#18B5C9"/><polygon points="58.20,45.47 76.87,35.86 64.14,23.13 54.53,41.80" fill="#16235A"/><polygon points="73.05,32.04 92.14,12.95 87.05,7.86 67.96,26.95" fill="#16235A"/></g>
    <g transform="rotate(90 50 50)"><polygon points="76.87,35.86 86.77,40.10 66.14,41.39" fill="#18B5C9"/><polygon points="64.14,23.13 59.90,13.23 58.61,33.86" fill="#18B5C9"/><polygon points="58.20,45.47 76.87,35.86 64.14,23.13 54.53,41.80" fill="#16235A"/><polygon points="73.05,32.04 92.14,12.95 87.05,7.86 67.96,26.95" fill="#16235A"/></g>
    <g transform="rotate(180 50 50)"><polygon points="76.87,35.86 86.77,40.10 66.14,41.39" fill="#18B5C9"/><polygon points="64.14,23.13 59.90,13.23 58.61,33.86" fill="#18B5C9"/><polygon points="58.20,45.47 76.87,35.86 64.14,23.13 54.53,41.80" fill="#16235A"/><polygon points="73.05,32.04 92.14,12.95 87.05,7.86 67.96,26.95" fill="#16235A"/></g>
    <g transform="rotate(270 50 50)"><polygon points="76.87,35.86 86.77,40.10 66.14,41.39" fill="#18B5C9"/><polygon points="64.14,23.13 59.90,13.23 58.61,33.86" fill="#18B5C9"/><polygon points="58.20,45.47 76.87,35.86 64.14,23.13 54.53,41.80" fill="#16235A"/><polygon points="73.05,32.04 92.14,12.95 87.05,7.86 67.96,26.95" fill="#16235A"/></g>
    <circle cx="50" cy="50" r="7.4" fill="#F5A623"/>
  </g>
  <text x="660" y="1575" fill="#FFFFFF" text-anchor="middle" font-family="-apple-system, BlinkMacSystemFont, Segoe UI, sans-serif" font-size="104" font-weight="800" letter-spacing="-3">ContinuiXAi</text>
  <text x="660" y="1655" fill="#C8D0E8" text-anchor="middle" font-family="-apple-system, BlinkMacSystemFont, Segoe UI, sans-serif" font-size="36" font-weight="600">Start simple. Stay in control. Grow with confidence.</text>
  <rect x="555" y="1742" width="210" height="7" rx="3.5" fill="#18B5C9"/>
  <circle cx="782" cy="1745.5" r="7" fill="#F5A623"/>
</svg>
